<svg xmlns="http://www.w3.org/2000/svg" viewBox="0 0 512 512">
  <rect width="512" height="512" rx="116" fill="#fff8f1"/>
  <circle cx="256" cy="256" r="178" fill="#ffe0d8"/>
  <circle cx="256" cy="256" r="143" fill="#e86758"/>
  <path d="M256 365c-12-11-95-67-95-132 0-40 29-69 68-69 22 0 43 11 57 30 14-19 35-30 57-30 39 0 68 29 68 69 0 65-83 121-95 132-17 14-43 14-60 0Z" fill="#fff8f1" transform="translate(-30 0)"/>
  <circle cx="343" cy="177" r="24" fill="#f6b5ad"/>
  <path d="M342 164c4-6 10-9 17-9 12 0 21 9 21 21 0 19-23 34-28 38-6 5-14 5-20 0-5-4-28-19-28-38 0-12 9-21 21-21 7 0 13 3 17 9Z" fill="#fff8f1"/>
</svg>
