<svg xmlns="http://www.w3.org/2000/svg" viewBox="0 0 512 512">
  <rect width="512" height="512" fill="#e86758"/>
  <circle cx="256" cy="256" r="154" fill="#ffe0d8"/>
  <circle cx="256" cy="256" r="122" fill="#fff8f1"/>
  <path d="M256 339c-9-8-70-50-70-98 0-30 22-51 51-51 16 0 32 8 42 22 11-14 26-22 43-22 29 0 50 21 50 51 0 48-61 90-70 98-13 11-33 11-46 0Z" fill="#e86758" transform="translate(-23 0)"/>
  <circle cx="330" cy="202" r="20" fill="#f6b5ad"/>
  <path d="M330 192c3-5 8-7 13-7 9 0 16 7 16 16 0 14-18 26-21 29-5 4-11 4-16 0-3-3-21-15-21-29 0-9 7-16 16-16 5 0 10 2 13 7Z" fill="#fff8f1"/>
</svg>
